<?xml version="1.0" encoding="utf-8"?>
<!-- Generator: Adobe Illustrator 16.0.4, SVG Export Plug-In . SVG Version: 6.00 Build 0)  -->
<!DOCTYPE svg PUBLIC "-//W3C//DTD SVG 1.1//EN" "http://www.w3.org/Graphics/SVG/1.1/DTD/svg11.dtd">
<svg version="1.1" id="Ebene_1" xmlns="http://www.w3.org/2000/svg" xmlns:xlink="http://www.w3.org/1999/xlink" x="0px" y="0px"
	 width="97px" height="88px" viewBox="0 0 97 88" enable-background="new 0 0 97 88" xml:space="preserve">
<g>
	<polygon fill="#4D4D4D" points="24.627,72.762 21.206,64.038 19,64.038 23.719,75.471 25.471,75.471 30.189,64.038 28.033,64.038 
		24.627,72.762 	"/>
	<path fill="#4D4D4D" d="M41.43,65.514v-1.865h-2.125v1.865H41.43L41.43,65.514z M41.365,75.39v-8.562h-1.979v8.562H41.365
		L41.365,75.39z"/>
	<polygon fill="#4D4D4D" points="60.259,64.038 51.827,64.038 51.827,75.39 53.805,75.39 53.805,70.768 59.529,70.768 
		59.529,68.968 53.805,68.968 53.805,65.838 60.259,65.838 60.259,64.038 	"/>
	<polygon fill="#4D4D4D" points="78.553,64.038 70.153,64.038 70.153,75.39 78.634,75.39 78.634,73.589 72.131,73.589 
		72.131,70.557 77.824,70.557 77.824,68.757 72.131,68.757 72.131,65.838 78.553,65.838 78.553,64.038 	"/>
	<polygon fill-rule="evenodd" clip-rule="evenodd" fill="#6DB7F2" points="79.843,15.179 75.257,23.121 70.672,31.063 
		66.086,23.121 61.501,15.179 70.672,15.178 79.843,15.179 	"/>
	<polygon fill-rule="evenodd" clip-rule="evenodd" fill="#165EA0" points="52.198,31.139 61.369,31.139 70.54,31.139 65.954,23.197 
		61.369,15.255 56.783,23.197 52.198,31.139 	"/>
	<polygon fill-rule="evenodd" clip-rule="evenodd" fill="#A1D1F7" points="37.934,58.313 42.52,50.371 47.105,42.429 51.69,50.371 
		56.276,58.313 47.105,58.313 37.934,58.313 	"/>
	<polygon fill-rule="evenodd" clip-rule="evenodd" fill="#2491EB" points="65.579,42.353 56.408,42.352 47.237,42.353 
		51.822,50.294 56.408,58.237 60.994,50.294 65.579,42.353 	"/>
	<polygon fill-rule="evenodd" clip-rule="evenodd" fill="#6DB7F2" points="47.009,42.382 37.838,42.382 28.667,42.382 
		33.252,50.324 37.838,58.267 42.423,50.324 47.009,42.382 	"/>
	<polygon fill-rule="evenodd" clip-rule="evenodd" fill="#165EA0" points="37.751,26.347 28.58,26.347 19.409,26.347 23.995,34.289 
		28.58,42.231 33.166,34.29 37.751,26.347 	"/>
	<polygon fill-rule="evenodd" clip-rule="evenodd" fill="#2491EB" points="28.676,42.278 33.262,34.336 37.847,26.394 
		42.433,34.336 47.018,42.278 37.847,42.278 28.676,42.278 	"/>
	<polygon display="none" fill-rule="evenodd" clip-rule="evenodd" fill="#4D4D4D" points="99.844,-21 101.413,-21 101.413,111.648 
		99.844,111.648 99.844,-21 	"/>
</g>
</svg>
